solid OpenSCAD_Model
  facet normal 0 0 -1
    outer loop
      vertex -7 0 -5
      vertex -6.6574 2.16312 -5
      vertex -6.6574 -2.16312 -5
    endloop
  endfacet
  facet normal 0 0 -1
    outer loop
      vertex -6.6574 -2.16312 -5
      vertex -6.6574 2.16312 -5
      vertex -5.66312 4.1145 -5
    endloop
  endfacet
  facet normal 0 0 -1
    outer loop
      vertex -6.6574 -2.16312 -5
      vertex -5.66312 4.1145 -5
      vertex -4.1145 5.66312 -5
    endloop
  endfacet
  facet normal 0 0 -1
    outer loop
      vertex -6.6574 -2.16312 -5
      vertex -4.1145 5.66312 -5
      vertex -2.16312 6.6574 -5
    endloop
  endfacet
  facet normal 0 0 -1
    outer loop
      vertex -6.6574 -2.16312 -5
      vertex -2.16312 6.6574 -5
      vertex 0 7 -5
    endloop
  endfacet
  facet normal 0 0 -1
    outer loop
      vertex -6.6574 -2.16312 -5
      vertex 0 7 -5
      vertex 2.16312 6.6574 -5
    endloop
  endfacet
  facet normal 0 0 -1
    outer loop
      vertex -6.6574 -2.16312 -5
      vertex 2.16312 6.6574 -5
      vertex 4.1145 5.66312 -5
    endloop
  endfacet
  facet normal 0 0 -1
    outer loop
      vertex 0.618034 1.90211 -5
      vertex 4.1145 5.66312 -5
      vertex 5.66312 4.1145 -5
    endloop
  endfacet
  facet normal 0 0 -1
    outer loop
      vertex 1.61803 1.17557 -5
      vertex 5.66312 4.1145 -5
      vertex 6.6574 2.16312 -5
    endloop
  endfacet
  facet normal 0 0 -1
    outer loop
      vertex 2 0 -5
      vertex 6.6574 2.16312 -5
      vertex 7 0 -5
    endloop
  endfacet
  facet normal 0 0 -1
    outer loop
      vertex 1.17557 -1.61803 -5
      vertex 7 0 -5
      vertex 6.6574 -2.16312 -5
    endloop
  endfacet
  facet normal 0 0 -1
    outer loop
      vertex -6.6574 -2.16312 -5
      vertex 6.6574 -2.16312 -5
      vertex 5.66312 -4.1145 -5
    endloop
  endfacet
  facet normal 0 0 -1
    outer loop
      vertex -6.6574 -2.16312 -5
      vertex 5.66312 -4.1145 -5
      vertex 4.1145 -5.66312 -5
    endloop
  endfacet
  facet normal 0 0 -1
    outer loop
      vertex -6.6574 -2.16312 -5
      vertex 4.1145 -5.66312 -5
      vertex 2.16312 -6.6574 -5
    endloop
  endfacet
  facet normal 0 0 -1
    outer loop
      vertex -6.6574 -2.16312 -5
      vertex 2.16312 -6.6574 -5
      vertex 0 -7 -5
    endloop
  endfacet
  facet normal 0 0 -1
    outer loop
      vertex -6.6574 -2.16312 -5
      vertex 0 -7 -5
      vertex -2.16312 -6.6574 -5
    endloop
  endfacet
  facet normal 0 0 -1
    outer loop
      vertex -6.6574 -2.16312 -5
      vertex -2.16312 -6.6574 -5
      vertex -4.1145 -5.66312 -5
    endloop
  endfacet
  facet normal 0 0 -1
    outer loop
      vertex -6.6574 -2.16312 -5
      vertex -4.1145 -5.66312 -5
      vertex -5.66312 -4.1145 -5
    endloop
  endfacet
  facet normal 0 0 -1
    outer loop
      vertex -1.90211 -0.618034 -5
      vertex -6.6574 -2.16312 -5
      vertex -2 0 -5
    endloop
  endfacet
  facet normal 0 0 -1
    outer loop
      vertex -1.17557 -1.61803 -5
      vertex -6.6574 -2.16312 -5
      vertex -1.61803 -1.17557 -5
    endloop
  endfacet
  facet normal 0 0 -1
    outer loop
      vertex -6.6574 -2.16312 -5
      vertex -1.90211 -0.618034 -5
      vertex -1.61803 -1.17557 -5
    endloop
  endfacet
  facet normal 0 0 -1
    outer loop
      vertex 0.618034 -1.90211 -5
      vertex 6.6574 -2.16312 -5
      vertex 0 -2 -5
    endloop
  endfacet
  facet normal 0 0 -1
    outer loop
      vertex -6.6574 -2.16312 -5
      vertex -1.17557 -1.61803 -5
      vertex -0.618034 -1.90211 -5
    endloop
  endfacet
  facet normal 0 0 -1
    outer loop
      vertex -6.6574 -2.16312 -5
      vertex -0.618034 -1.90211 -5
      vertex 0 -2 -5
    endloop
  endfacet
  facet normal 0 0 -1
    outer loop
      vertex -6.6574 -2.16312 -5
      vertex 0 -2 -5
      vertex 6.6574 -2.16312 -5
    endloop
  endfacet
  facet normal 0 0 -1
    outer loop
      vertex 1.17557 -1.61803 -5
      vertex 6.6574 -2.16312 -5
      vertex 0.618034 -1.90211 -5
    endloop
  endfacet
  facet normal 0 0 -1
    outer loop
      vertex 1.61803 -1.17557 -5
      vertex 7 0 -5
      vertex 1.17557 -1.61803 -5
    endloop
  endfacet
  facet normal 0 0 -1
    outer loop
      vertex 1.90211 -0.618034 -5
      vertex 7 0 -5
      vertex 1.61803 -1.17557 -5
    endloop
  endfacet
  facet normal 0 0 -1
    outer loop
      vertex 2 0 -5
      vertex 7 0 -5
      vertex 1.90211 -0.618034 -5
    endloop
  endfacet
  facet normal 0 0 -1
    outer loop
      vertex 1.90211 0.618034 -5
      vertex 6.6574 2.16312 -5
      vertex 2 0 -5
    endloop
  endfacet
  facet normal 0 0 -1
    outer loop
      vertex 1.17557 1.61803 -5
      vertex 5.66312 4.1145 -5
      vertex 1.61803 1.17557 -5
    endloop
  endfacet
  facet normal 0 0 -1
    outer loop
      vertex 0.618034 1.90211 -5
      vertex 5.66312 4.1145 -5
      vertex 1.17557 1.61803 -5
    endloop
  endfacet
  facet normal 0 0 -1
    outer loop
      vertex 0 2 -5
      vertex 4.1145 5.66312 -5
      vertex 0.618034 1.90211 -5
    endloop
  endfacet
  facet normal 0 0 -1
    outer loop
      vertex 1.61803 1.17557 -5
      vertex 6.6574 2.16312 -5
      vertex 1.90211 0.618034 -5
    endloop
  endfacet
  facet normal 0 0 -1
    outer loop
      vertex -0.618034 1.90211 -5
      vertex 4.1145 5.66312 -5
      vertex 0 2 -5
    endloop
  endfacet
  facet normal 0 0 -1
    outer loop
      vertex -1.17557 1.61803 -5
      vertex 4.1145 5.66312 -5
      vertex -0.618034 1.90211 -5
    endloop
  endfacet
  facet normal 0 0 -1
    outer loop
      vertex -6.6574 -2.16312 -5
      vertex 4.1145 5.66312 -5
      vertex -1.17557 1.61803 -5
    endloop
  endfacet
  facet normal 0 0 -1
    outer loop
      vertex -1.90211 0.618034 -5
      vertex -6.6574 -2.16312 -5
      vertex -1.61803 1.17557 -5
    endloop
  endfacet
  facet normal 0 0 -1
    outer loop
      vertex -2 0 -5
      vertex -6.6574 -2.16312 -5
      vertex -1.90211 0.618034 -5
    endloop
  endfacet
  facet normal 0 0 -1
    outer loop
      vertex -1.61803 1.17557 -5
      vertex -6.6574 -2.16312 -5
      vertex -1.17557 1.61803 -5
    endloop
  endfacet
  facet normal -0.987688 0.156434 0
    outer loop
      vertex -7 0 -5
      vertex -7 0 5
      vertex -6.6574 2.16312 -5
    endloop
  endfacet
  facet normal -0.987688 0.156434 0
    outer loop
      vertex -6.6574 2.16312 -5
      vertex -7 0 5
      vertex -6.6574 2.16312 5
    endloop
  endfacet
  facet normal -0.987688 -0.156434 0
    outer loop
      vertex -7 0 -5
      vertex -6.6574 -2.16312 -5
      vertex -7 0 5
    endloop
  endfacet
  facet normal -0.987688 -0.156434 0
    outer loop
      vertex -7 0 5
      vertex -6.6574 -2.16312 -5
      vertex -6.6574 -2.16312 5
    endloop
  endfacet
  facet normal -0.891006 -0.453991 0
    outer loop
      vertex -6.6574 -2.16312 -5
      vertex -5.66312 -4.1145 -5
      vertex -6.6574 -2.16312 5
    endloop
  endfacet
  facet normal -0.891006 -0.453991 0
    outer loop
      vertex -6.6574 -2.16312 5
      vertex -5.66312 -4.1145 -5
      vertex -5.66312 -4.1145 5
    endloop
  endfacet
  facet normal -0.707107 -0.707107 0
    outer loop
      vertex -5.66312 -4.1145 5
      vertex -5.66312 -4.1145 -5
      vertex -4.1145 -5.66312 -5
    endloop
  endfacet
  facet normal -0.707107 -0.707107 0
    outer loop
      vertex -4.1145 -5.66312 5
      vertex -5.66312 -4.1145 5
      vertex -4.1145 -5.66312 -5
    endloop
  endfacet
  facet normal -0.453991 -0.891006 0
    outer loop
      vertex -4.1145 -5.66312 5
      vertex -4.1145 -5.66312 -5
      vertex -2.16312 -6.6574 -5
    endloop
  endfacet
  facet normal -0.453991 -0.891006 0
    outer loop
      vertex -2.16312 -6.6574 5
      vertex -4.1145 -5.66312 5
      vertex -2.16312 -6.6574 -5
    endloop
  endfacet
  facet normal -0.156434 -0.987688 0
    outer loop
      vertex -2.16312 -6.6574 5
      vertex -2.16312 -6.6574 -5
      vertex 0 -7 -5
    endloop
  endfacet
  facet normal -0.156434 -0.987688 0
    outer loop
      vertex 0 -7 5
      vertex -2.16312 -6.6574 5
      vertex 0 -7 -5
    endloop
  endfacet
  facet normal 0.156434 -0.987688 0
    outer loop
      vertex 0 -7 5
      vertex 0 -7 -5
      vertex 2.16312 -6.6574 -5
    endloop
  endfacet
  facet normal 0.156434 -0.987688 0
    outer loop
      vertex 2.16312 -6.6574 5
      vertex 0 -7 5
      vertex 2.16312 -6.6574 -5
    endloop
  endfacet
  facet normal 0.453991 -0.891006 0
    outer loop
      vertex 2.16312 -6.6574 5
      vertex 2.16312 -6.6574 -5
      vertex 4.1145 -5.66312 -5
    endloop
  endfacet
  facet normal 0.453991 -0.891006 0
    outer loop
      vertex 4.1145 -5.66312 5
      vertex 2.16312 -6.6574 5
      vertex 4.1145 -5.66312 -5
    endloop
  endfacet
  facet normal 0.707107 -0.707107 0
    outer loop
      vertex 4.1145 -5.66312 5
      vertex 4.1145 -5.66312 -5
      vertex 5.66312 -4.1145 -5
    endloop
  endfacet
  facet normal 0.707107 -0.707107 0
    outer loop
      vertex 5.66312 -4.1145 5
      vertex 4.1145 -5.66312 5
      vertex 5.66312 -4.1145 -5
    endloop
  endfacet
  facet normal 0.891006 -0.453991 0
    outer loop
      vertex 5.66312 -4.1145 5
      vertex 5.66312 -4.1145 -5
      vertex 6.6574 -2.16312 -5
    endloop
  endfacet
  facet normal 0.891006 -0.453991 0
    outer loop
      vertex 6.6574 -2.16312 5
      vertex 5.66312 -4.1145 5
      vertex 6.6574 -2.16312 -5
    endloop
  endfacet
  facet normal 0.987688 -0.156434 0
    outer loop
      vertex 6.6574 -2.16312 5
      vertex 6.6574 -2.16312 -5
      vertex 7 0 -5
    endloop
  endfacet
  facet normal 0.987688 -0.156434 0
    outer loop
      vertex 7 0 5
      vertex 6.6574 -2.16312 5
      vertex 7 0 -5
    endloop
  endfacet
  facet normal 0.987688 0.156434 0
    outer loop
      vertex 7 0 -5
      vertex 6.6574 2.16312 -5
      vertex 6.6574 2.16312 5
    endloop
  endfacet
  facet normal 0.987688 0.156434 0
    outer loop
      vertex 7 0 5
      vertex 7 0 -5
      vertex 6.6574 2.16312 5
    endloop
  endfacet
  facet normal 0.891006 0.453991 0
    outer loop
      vertex 6.6574 2.16312 -5
      vertex 5.66312 4.1145 -5
      vertex 5.66312 4.1145 5
    endloop
  endfacet
  facet normal 0.891006 0.453991 0
    outer loop
      vertex 6.6574 2.16312 5
      vertex 6.6574 2.16312 -5
      vertex 5.66312 4.1145 5
    endloop
  endfacet
  facet normal 0.707107 0.707107 0
    outer loop
      vertex 4.1145 5.66312 -5
      vertex 4.1145 5.66312 5
      vertex 5.66312 4.1145 -5
    endloop
  endfacet
  facet normal 0.707107 0.707107 0
    outer loop
      vertex 5.66312 4.1145 -5
      vertex 4.1145 5.66312 5
      vertex 5.66312 4.1145 5
    endloop
  endfacet
  facet normal 0.453991 0.891006 0
    outer loop
      vertex 2.16312 6.6574 -5
      vertex 2.16312 6.6574 5
      vertex 4.1145 5.66312 -5
    endloop
  endfacet
  facet normal 0.453991 0.891006 0
    outer loop
      vertex 4.1145 5.66312 -5
      vertex 2.16312 6.6574 5
      vertex 4.1145 5.66312 5
    endloop
  endfacet
  facet normal 0.156434 0.987688 0
    outer loop
      vertex 0 7 -5
      vertex 0 7 5
      vertex 2.16312 6.6574 -5
    endloop
  endfacet
  facet normal 0.156434 0.987688 0
    outer loop
      vertex 2.16312 6.6574 -5
      vertex 0 7 5
      vertex 2.16312 6.6574 5
    endloop
  endfacet
  facet normal -0.156434 0.987688 0
    outer loop
      vertex -2.16312 6.6574 -5
      vertex -2.16312 6.6574 5
      vertex 0 7 -5
    endloop
  endfacet
  facet normal -0.156434 0.987688 0
    outer loop
      vertex 0 7 -5
      vertex -2.16312 6.6574 5
      vertex 0 7 5
    endloop
  endfacet
  facet normal -0.453991 0.891006 0
    outer loop
      vertex -4.1145 5.66312 -5
      vertex -4.1145 5.66312 5
      vertex -2.16312 6.6574 -5
    endloop
  endfacet
  facet normal -0.453991 0.891006 0
    outer loop
      vertex -2.16312 6.6574 -5
      vertex -4.1145 5.66312 5
      vertex -2.16312 6.6574 5
    endloop
  endfacet
  facet normal -0.707107 0.707107 0
    outer loop
      vertex -5.66312 4.1145 -5
      vertex -5.66312 4.1145 5
      vertex -4.1145 5.66312 -5
    endloop
  endfacet
  facet normal -0.707107 0.707107 0
    outer loop
      vertex -4.1145 5.66312 -5
      vertex -5.66312 4.1145 5
      vertex -4.1145 5.66312 5
    endloop
  endfacet
  facet normal -0.891006 0.453991 0
    outer loop
      vertex -6.6574 2.16312 -5
      vertex -6.6574 2.16312 5
      vertex -5.66312 4.1145 -5
    endloop
  endfacet
  facet normal -0.891006 0.453991 0
    outer loop
      vertex -5.66312 4.1145 -5
      vertex -6.6574 2.16312 5
      vertex -5.66312 4.1145 5
    endloop
  endfacet
  facet normal 0.987688 0.156435 0
    outer loop
      vertex -2 0 5
      vertex -1.90211 -0.618034 5
      vertex -1.90211 -0.618034 -5
    endloop
  endfacet
  facet normal 0.987688 0.156435 0
    outer loop
      vertex -2 0 -5
      vertex -2 0 5
      vertex -1.90211 -0.618034 -5
    endloop
  endfacet
  facet normal 0.987688 -0.156435 0
    outer loop
      vertex -1.90211 0.618034 -5
      vertex -1.90211 0.618034 5
      vertex -2 0 5
    endloop
  endfacet
  facet normal 0.987688 -0.156435 0
    outer loop
      vertex -2 0 -5
      vertex -1.90211 0.618034 -5
      vertex -2 0 5
    endloop
  endfacet
  facet normal 0.891007 -0.45399 0
    outer loop
      vertex -1.61803 1.17557 -5
      vertex -1.61803 1.17557 5
      vertex -1.90211 0.618034 5
    endloop
  endfacet
  facet normal 0.891007 -0.45399 0
    outer loop
      vertex -1.90211 0.618034 -5
      vertex -1.61803 1.17557 -5
      vertex -1.90211 0.618034 5
    endloop
  endfacet
  facet normal 0.707107 -0.707107 0
    outer loop
      vertex -1.17557 1.61803 -5
      vertex -1.17557 1.61803 5
      vertex -1.61803 1.17557 5
    endloop
  endfacet
  facet normal 0.707107 -0.707107 0
    outer loop
      vertex -1.61803 1.17557 -5
      vertex -1.17557 1.61803 -5
      vertex -1.61803 1.17557 5
    endloop
  endfacet
  facet normal 0.45399 -0.891007 0
    outer loop
      vertex -0.618034 1.90211 -5
      vertex -0.618034 1.90211 5
      vertex -1.17557 1.61803 5
    endloop
  endfacet
  facet normal 0.45399 -0.891007 0
    outer loop
      vertex -1.17557 1.61803 -5
      vertex -0.618034 1.90211 -5
      vertex -1.17557 1.61803 5
    endloop
  endfacet
  facet normal 0.156435 -0.987688 0
    outer loop
      vertex 0 2 -5
      vertex 0 2 5
      vertex -0.618034 1.90211 5
    endloop
  endfacet
  facet normal 0.156435 -0.987688 0
    outer loop
      vertex -0.618034 1.90211 -5
      vertex 0 2 -5
      vertex -0.618034 1.90211 5
    endloop
  endfacet
  facet normal -0.156435 -0.987688 0
    outer loop
      vertex 0.618034 1.90211 -5
      vertex 0.618034 1.90211 5
      vertex 0 2 5
    endloop
  endfacet
  facet normal -0.156435 -0.987688 0
    outer loop
      vertex 0 2 -5
      vertex 0.618034 1.90211 -5
      vertex 0 2 5
    endloop
  endfacet
  facet normal -0.45399 -0.891007 0
    outer loop
      vertex 1.17557 1.61803 -5
      vertex 1.17557 1.61803 5
      vertex 0.618034 1.90211 5
    endloop
  endfacet
  facet normal -0.45399 -0.891007 0
    outer loop
      vertex 0.618034 1.90211 -5
      vertex 1.17557 1.61803 -5
      vertex 0.618034 1.90211 5
    endloop
  endfacet
  facet normal -0.707107 -0.707107 0
    outer loop
      vertex 1.61803 1.17557 -5
      vertex 1.61803 1.17557 5
      vertex 1.17557 1.61803 5
    endloop
  endfacet
  facet normal -0.707107 -0.707107 0
    outer loop
      vertex 1.17557 1.61803 -5
      vertex 1.61803 1.17557 -5
      vertex 1.17557 1.61803 5
    endloop
  endfacet
  facet normal -0.891007 -0.45399 0
    outer loop
      vertex 1.90211 0.618034 5
      vertex 1.61803 1.17557 5
      vertex 1.90211 0.618034 -5
    endloop
  endfacet
  facet normal -0.891007 -0.45399 0
    outer loop
      vertex 1.90211 0.618034 -5
      vertex 1.61803 1.17557 5
      vertex 1.61803 1.17557 -5
    endloop
  endfacet
  facet normal -0.987688 -0.156435 0
    outer loop
      vertex 2 0 5
      vertex 1.90211 0.618034 5
      vertex 2 0 -5
    endloop
  endfacet
  facet normal -0.987688 -0.156435 0
    outer loop
      vertex 2 0 -5
      vertex 1.90211 0.618034 5
      vertex 1.90211 0.618034 -5
    endloop
  endfacet
  facet normal -0.987688 0.156435 0
    outer loop
      vertex 2 0 5
      vertex 2 0 -5
      vertex 1.90211 -0.618034 5
    endloop
  endfacet
  facet normal -0.987688 0.156435 0
    outer loop
      vertex 1.90211 -0.618034 5
      vertex 2 0 -5
      vertex 1.90211 -0.618034 -5
    endloop
  endfacet
  facet normal -0.891007 0.45399 0
    outer loop
      vertex 1.90211 -0.618034 5
      vertex 1.90211 -0.618034 -5
      vertex 1.61803 -1.17557 5
    endloop
  endfacet
  facet normal -0.891007 0.45399 0
    outer loop
      vertex 1.61803 -1.17557 5
      vertex 1.90211 -0.618034 -5
      vertex 1.61803 -1.17557 -5
    endloop
  endfacet
  facet normal -0.707107 0.707107 0
    outer loop
      vertex 1.61803 -1.17557 5
      vertex 1.61803 -1.17557 -5
      vertex 1.17557 -1.61803 5
    endloop
  endfacet
  facet normal -0.707107 0.707107 0
    outer loop
      vertex 1.17557 -1.61803 5
      vertex 1.61803 -1.17557 -5
      vertex 1.17557 -1.61803 -5
    endloop
  endfacet
  facet normal -0.45399 0.891007 0
    outer loop
      vertex 1.17557 -1.61803 5
      vertex 1.17557 -1.61803 -5
      vertex 0.618034 -1.90211 5
    endloop
  endfacet
  facet normal -0.45399 0.891007 0
    outer loop
      vertex 0.618034 -1.90211 5
      vertex 1.17557 -1.61803 -5
      vertex 0.618034 -1.90211 -5
    endloop
  endfacet
  facet normal -0.156435 0.987688 0
    outer loop
      vertex 0.618034 -1.90211 5
      vertex 0.618034 -1.90211 -5
      vertex 0 -2 5
    endloop
  endfacet
  facet normal -0.156435 0.987688 0
    outer loop
      vertex 0 -2 5
      vertex 0.618034 -1.90211 -5
      vertex 0 -2 -5
    endloop
  endfacet
  facet normal 0.156435 0.987688 0
    outer loop
      vertex 0 -2 5
      vertex 0 -2 -5
      vertex -0.618034 -1.90211 5
    endloop
  endfacet
  facet normal 0.156435 0.987688 0
    outer loop
      vertex -0.618034 -1.90211 5
      vertex 0 -2 -5
      vertex -0.618034 -1.90211 -5
    endloop
  endfacet
  facet normal 0.45399 0.891007 0
    outer loop
      vertex -0.618034 -1.90211 5
      vertex -0.618034 -1.90211 -5
      vertex -1.17557 -1.61803 5
    endloop
  endfacet
  facet normal 0.45399 0.891007 0
    outer loop
      vertex -1.17557 -1.61803 5
      vertex -0.618034 -1.90211 -5
      vertex -1.17557 -1.61803 -5
    endloop
  endfacet
  facet normal 0.707107 0.707107 0
    outer loop
      vertex -1.17557 -1.61803 5
      vertex -1.17557 -1.61803 -5
      vertex -1.61803 -1.17557 5
    endloop
  endfacet
  facet normal 0.707107 0.707107 0
    outer loop
      vertex -1.61803 -1.17557 5
      vertex -1.17557 -1.61803 -5
      vertex -1.61803 -1.17557 -5
    endloop
  endfacet
  facet normal 0.891007 0.45399 0
    outer loop
      vertex -1.90211 -0.618034 5
      vertex -1.61803 -1.17557 5
      vertex -1.61803 -1.17557 -5
    endloop
  endfacet
  facet normal 0.891007 0.45399 0
    outer loop
      vertex -1.90211 -0.618034 -5
      vertex -1.90211 -0.618034 5
      vertex -1.61803 -1.17557 -5
    endloop
  endfacet
  facet normal 0 0 1
    outer loop
      vertex -6.6574 2.16312 5
      vertex -7 0 5
      vertex -6.6574 -2.16312 5
    endloop
  endfacet
  facet normal 0 0 1
    outer loop
      vertex -4.1145 -5.66312 5
      vertex -6.6574 2.16312 5
      vertex -5.66312 -4.1145 5
    endloop
  endfacet
  facet normal 0 0 1
    outer loop
      vertex -5.66312 -4.1145 5
      vertex -6.6574 2.16312 5
      vertex -6.6574 -2.16312 5
    endloop
  endfacet
  facet normal 0 0 1
    outer loop
      vertex -2.16312 -6.6574 5
      vertex -6.6574 2.16312 5
      vertex -4.1145 -5.66312 5
    endloop
  endfacet
  facet normal 0 0 1
    outer loop
      vertex 0 -7 5
      vertex -6.6574 2.16312 5
      vertex -2.16312 -6.6574 5
    endloop
  endfacet
  facet normal 0 0 1
    outer loop
      vertex 2.16312 -6.6574 5
      vertex -6.6574 2.16312 5
      vertex 0 -7 5
    endloop
  endfacet
  facet normal 0 0 1
    outer loop
      vertex 4.1145 -5.66312 5
      vertex -6.6574 2.16312 5
      vertex 2.16312 -6.6574 5
    endloop
  endfacet
  facet normal 0 0 1
    outer loop
      vertex -1.17557 -1.61803 5
      vertex -6.6574 2.16312 5
      vertex 4.1145 -5.66312 5
    endloop
  endfacet
  facet normal 0 0 1
    outer loop
      vertex 1.90211 0.618034 5
      vertex 2 0 5
      vertex 7 0 5
    endloop
  endfacet
  facet normal 0 0 1
    outer loop
      vertex 5.66312 4.1145 5
      vertex -6.6574 2.16312 5
      vertex 6.6574 2.16312 5
    endloop
  endfacet
  facet normal 0 0 1
    outer loop
      vertex 4.1145 5.66312 5
      vertex -6.6574 2.16312 5
      vertex 5.66312 4.1145 5
    endloop
  endfacet
  facet normal 0 0 1
    outer loop
      vertex 2.16312 6.6574 5
      vertex -6.6574 2.16312 5
      vertex 4.1145 5.66312 5
    endloop
  endfacet
  facet normal 0 0 1
    outer loop
      vertex 0 7 5
      vertex -6.6574 2.16312 5
      vertex 2.16312 6.6574 5
    endloop
  endfacet
  facet normal 0 0 1
    outer loop
      vertex -2.16312 6.6574 5
      vertex -6.6574 2.16312 5
      vertex 0 7 5
    endloop
  endfacet
  facet normal 0 0 1
    outer loop
      vertex -4.1145 5.66312 5
      vertex -6.6574 2.16312 5
      vertex -2.16312 6.6574 5
    endloop
  endfacet
  facet normal 0 0 1
    outer loop
      vertex -5.66312 4.1145 5
      vertex -6.6574 2.16312 5
      vertex -4.1145 5.66312 5
    endloop
  endfacet
  facet normal 0 0 1
    outer loop
      vertex -1.17557 -1.61803 5
      vertex -1.61803 -1.17557 5
      vertex -6.6574 2.16312 5
    endloop
  endfacet
  facet normal 0 0 1
    outer loop
      vertex 1.61803 1.17557 5
      vertex 1.90211 0.618034 5
      vertex 7 0 5
    endloop
  endfacet
  facet normal 0 0 1
    outer loop
      vertex 1.90211 -0.618034 5
      vertex 1.61803 -1.17557 5
      vertex 6.6574 -2.16312 5
    endloop
  endfacet
  facet normal 0 0 1
    outer loop
      vertex -1.61803 1.17557 5
      vertex -6.6574 2.16312 5
      vertex -1.90211 0.618034 5
    endloop
  endfacet
  facet normal 0 0 1
    outer loop
      vertex 0 2 5
      vertex 0.618034 1.90211 5
      vertex 6.6574 2.16312 5
    endloop
  endfacet
  facet normal 0 0 1
    outer loop
      vertex 1.17557 -1.61803 5
      vertex 0.618034 -1.90211 5
      vertex 5.66312 -4.1145 5
    endloop
  endfacet
  facet normal 0 0 1
    outer loop
      vertex -0.618034 1.90211 5
      vertex -6.6574 2.16312 5
      vertex -1.17557 1.61803 5
    endloop
  endfacet
  facet normal 0 0 1
    outer loop
      vertex 0 2 5
      vertex -6.6574 2.16312 5
      vertex -0.618034 1.90211 5
    endloop
  endfacet
  facet normal 0 0 1
    outer loop
      vertex 0.618034 1.90211 5
      vertex 1.17557 1.61803 5
      vertex 6.6574 2.16312 5
    endloop
  endfacet
  facet normal 0 0 1
    outer loop
      vertex 6.6574 2.16312 5
      vertex -6.6574 2.16312 5
      vertex 0 2 5
    endloop
  endfacet
  facet normal 0 0 1
    outer loop
      vertex 6.6574 2.16312 5
      vertex 1.17557 1.61803 5
      vertex 7 0 5
    endloop
  endfacet
  facet normal 0 0 1
    outer loop
      vertex 1.17557 1.61803 5
      vertex 1.61803 1.17557 5
      vertex 7 0 5
    endloop
  endfacet
  facet normal 0 0 1
    outer loop
      vertex 2 0 5
      vertex 1.90211 -0.618034 5
      vertex 6.6574 -2.16312 5
    endloop
  endfacet
  facet normal 0 0 1
    outer loop
      vertex 7 0 5
      vertex 2 0 5
      vertex 6.6574 -2.16312 5
    endloop
  endfacet
  facet normal 0 0 1
    outer loop
      vertex -1.61803 1.17557 5
      vertex -1.17557 1.61803 5
      vertex -6.6574 2.16312 5
    endloop
  endfacet
  facet normal 0 0 1
    outer loop
      vertex 6.6574 -2.16312 5
      vertex 1.61803 -1.17557 5
      vertex 5.66312 -4.1145 5
    endloop
  endfacet
  facet normal 0 0 1
    outer loop
      vertex 1.61803 -1.17557 5
      vertex 1.17557 -1.61803 5
      vertex 5.66312 -4.1145 5
    endloop
  endfacet
  facet normal 0 0 1
    outer loop
      vertex 5.66312 -4.1145 5
      vertex 0.618034 -1.90211 5
      vertex 4.1145 -5.66312 5
    endloop
  endfacet
  facet normal 0 0 1
    outer loop
      vertex 0.618034 -1.90211 5
      vertex 0 -2 5
      vertex 4.1145 -5.66312 5
    endloop
  endfacet
  facet normal 0 0 1
    outer loop
      vertex -0.618034 -1.90211 5
      vertex -1.17557 -1.61803 5
      vertex 4.1145 -5.66312 5
    endloop
  endfacet
  facet normal 0 0 1
    outer loop
      vertex -1.90211 -0.618034 5
      vertex -6.6574 2.16312 5
      vertex -1.61803 -1.17557 5
    endloop
  endfacet
  facet normal 0 0 1
    outer loop
      vertex 0 -2 5
      vertex -0.618034 -1.90211 5
      vertex 4.1145 -5.66312 5
    endloop
  endfacet
  facet normal 0 0 1
    outer loop
      vertex -1.90211 -0.618034 5
      vertex -2 0 5
      vertex -6.6574 2.16312 5
    endloop
  endfacet
  facet normal 0 0 1
    outer loop
      vertex -2 0 5
      vertex -1.90211 0.618034 5
      vertex -6.6574 2.16312 5
    endloop
  endfacet
endsolid OpenSCAD_Model
