  0
SECTION
  2
BLOCKS
  0
ENDSEC
  0
SECTION
  2
ENTITIES
  0
LINE
  8
0
 10
-10
 11
-10
 20
-15
 21
147
  0
LINE
  8
0
 10
-10
 11
-9.511
 20
147
 21
150.09
  0
LINE
  8
0
 10
-9.511
 11
-8.09
 20
150.09
 21
152.878
  0
LINE
  8
0
 10
-8.09
 11
-5.878
 20
152.878
 21
155.09
  0
LINE
  8
0
 10
-5.878
 11
-3.09
 20
155.09
 21
156.511
  0
LINE
  8
0
 10
-3.09
 11
0
 20
156.511
 21
157
  0
LINE
  8
0
 10
0
 11
92
 20
157
 21
157
  0
LINE
  8
0
 10
92
 11
95.09
 20
157
 21
156.511
  0
LINE
  8
0
 10
95.09
 11
97.878
 20
156.511
 21
155.09
  0
LINE
  8
0
 10
97.878
 11
100.09
 20
155.09
 21
152.878
  0
LINE
  8
0
 10
100.09
 11
101.511
 20
152.878
 21
150.09
  0
LINE
  8
0
 10
101.511
 11
102
 20
150.09
 21
147
  0
LINE
  8
0
 10
102
 11
102
 20
147
 21
-15
  0
LINE
  8
0
 10
102
 11
101.511
 20
-15
 21
-18.09
  0
LINE
  8
0
 10
101.511
 11
100.09
 20
-18.09
 21
-20.878
  0
LINE
  8
0
 10
100.09
 11
97.878
 20
-20.878
 21
-23.09
  0
LINE
  8
0
 10
97.878
 11
95.09
 20
-23.09
 21
-24.511
  0
LINE
  8
0
 10
95.09
 11
92
 20
-24.511
 21
-25
  0
LINE
  8
0
 10
92
 11
0
 20
-25
 21
-25
  0
LINE
  8
0
 10
0
 11
-3.09
 20
-25
 21
-24.511
  0
LINE
  8
0
 10
-3.09
 11
-5.878
 20
-24.511
 21
-23.09
  0
LINE
  8
0
 10
-5.878
 11
-8.09
 20
-23.09
 21
-20.878
  0
LINE
  8
0
 10
-8.09
 11
-9.511
 20
-20.878
 21
-18.09
  0
LINE
  8
0
 10
-9.511
 11
-10
 20
-18.09
 21
-15
  0
LINE
  8
0
 10
-2
 11
-1.902
 20
-15
 21
-14.382
  0
LINE
  8
0
 10
-1.902
 11
-1.618
 20
-14.382
 21
-13.824
  0
LINE
  8
0
 10
-1.618
 11
-1.176
 20
-13.824
 21
-13.382
  0
LINE
  8
0
 10
-1.176
 11
-0.618
 20
-13.382
 21
-13.098
  0
LINE
  8
0
 10
-0.618
 11
0
 20
-13.098
 21
-13
  0
LINE
  8
0
 10
0
 11
0.618
 20
-13
 21
-13.098
  0
LINE
  8
0
 10
0.618
 11
1.176
 20
-13.098
 21
-13.382
  0
LINE
  8
0
 10
1.176
 11
1.618
 20
-13.382
 21
-13.824
  0
LINE
  8
0
 10
1.618
 11
1.902
 20
-13.824
 21
-14.382
  0
LINE
  8
0
 10
1.902
 11
2
 20
-14.382
 21
-15
  0
LINE
  8
0
 10
2
 11
1.902
 20
-15
 21
-15.618
  0
LINE
  8
0
 10
1.902
 11
1.618
 20
-15.618
 21
-16.176
  0
LINE
  8
0
 10
1.618
 11
1.176
 20
-16.176
 21
-16.618
  0
LINE
  8
0
 10
1.176
 11
0.618
 20
-16.618
 21
-16.902
  0
LINE
  8
0
 10
0.618
 11
0
 20
-16.902
 21
-17
  0
LINE
  8
0
 10
0
 11
-0.618
 20
-17
 21
-16.902
  0
LINE
  8
0
 10
-0.618
 11
-1.176
 20
-16.902
 21
-16.618
  0
LINE
  8
0
 10
-1.176
 11
-1.618
 20
-16.618
 21
-16.176
  0
LINE
  8
0
 10
-1.618
 11
-1.902
 20
-16.176
 21
-15.618
  0
LINE
  8
0
 10
-1.902
 11
-2
 20
-15.618
 21
-15
  0
LINE
  8
0
 10
-2
 11
-1.902
 20
147
 21
147.618
  0
LINE
  8
0
 10
-1.902
 11
-1.618
 20
147.618
 21
148.176
  0
LINE
  8
0
 10
-1.618
 11
-1.176
 20
148.176
 21
148.618
  0
LINE
  8
0
 10
-1.176
 11
-0.618
 20
148.618
 21
148.902
  0
LINE
  8
0
 10
-0.618
 11
0
 20
148.902
 21
149
  0
LINE
  8
0
 10
0
 11
0.618
 20
149
 21
148.902
  0
LINE
  8
0
 10
0.618
 11
1.176
 20
148.902
 21
148.618
  0
LINE
  8
0
 10
1.176
 11
1.618
 20
148.618
 21
148.176
  0
LINE
  8
0
 10
1.618
 11
1.902
 20
148.176
 21
147.618
  0
LINE
  8
0
 10
1.902
 11
2
 20
147.618
 21
147
  0
LINE
  8
0
 10
2
 11
1.902
 20
147
 21
146.382
  0
LINE
  8
0
 10
1.902
 11
1.618
 20
146.382
 21
145.824
  0
LINE
  8
0
 10
1.618
 11
1.176
 20
145.824
 21
145.382
  0
LINE
  8
0
 10
1.176
 11
0.618
 20
145.382
 21
145.098
  0
LINE
  8
0
 10
0.618
 11
0
 20
145.098
 21
145
  0
LINE
  8
0
 10
0
 11
-0.618
 20
145
 21
145.098
  0
LINE
  8
0
 10
-0.618
 11
-1.176
 20
145.098
 21
145.382
  0
LINE
  8
0
 10
-1.176
 11
-1.618
 20
145.382
 21
145.824
  0
LINE
  8
0
 10
-1.618
 11
-1.902
 20
145.824
 21
146.382
  0
LINE
  8
0
 10
-1.902
 11
-2
 20
146.382
 21
147
  0
LINE
  8
0
 10
0
 11
0
 20
10
 21
110
  0
LINE
  8
0
 10
0
 11
0.489
 20
110
 21
113.09
  0
LINE
  8
0
 10
0.489
 11
1.91
 20
113.09
 21
115.878
  0
LINE
  8
0
 10
1.91
 11
4.122
 20
115.878
 21
118.09
  0
LINE
  8
0
 10
4.122
 11
6.91
 20
118.09
 21
119.511
  0
LINE
  8
0
 10
6.91
 11
10
 20
119.511
 21
120
  0
LINE
  8
0
 10
10
 11
10
 20
120
 21
137
  0
LINE
  8
0
 10
10
 11
62
 20
137
 21
137
  0
LINE
  8
0
 10
62
 11
62
 20
137
 21
120
  0
LINE
  8
0
 10
62
 11
70
 20
120
 21
120
  0
LINE
  8
0
 10
70
 11
73.09
 20
120
 21
119.511
  0
LINE
  8
0
 10
73.09
 11
75.878
 20
119.511
 21
118.09
  0
LINE
  8
0
 10
75.878
 11
78.09
 20
118.09
 21
115.878
  0
LINE
  8
0
 10
78.09
 11
79.511
 20
115.878
 21
113.09
  0
LINE
  8
0
 10
79.511
 11
80
 20
113.09
 21
110
  0
LINE
  8
0
 10
80
 11
80
 20
110
 21
102
  0
LINE
  8
0
 10
80
 11
91
 20
102
 21
102
  0
LINE
  8
0
 10
91
 11
91
 20
102
 21
20
  0
LINE
  8
0
 10
91
 11
80
 20
20
 21
20
  0
LINE
  8
0
 10
80
 11
80
 20
20
 21
10
  0
LINE
  8
0
 10
80
 11
79.511
 20
10
 21
6.91
  0
LINE
  8
0
 10
79.511
 11
78.09
 20
6.91
 21
4.122
  0
LINE
  8
0
 10
78.09
 11
75.878
 20
4.122
 21
1.91
  0
LINE
  8
0
 10
75.878
 11
73.09
 20
1.91
 21
0.489
  0
LINE
  8
0
 10
73.09
 11
70
 20
0.489
 21
0
  0
LINE
  8
0
 10
70
 11
10
 20
0
 21
0
  0
LINE
  8
0
 10
10
 11
6.91
 20
0
 21
0.489
  0
LINE
  8
0
 10
6.91
 11
4.122
 20
0.489
 21
1.91
  0
LINE
  8
0
 10
4.122
 11
1.91
 20
1.91
 21
4.122
  0
LINE
  8
0
 10
1.91
 11
0.489
 20
4.122
 21
6.91
  0
LINE
  8
0
 10
0.489
 11
0
 20
6.91
 21
10
  0
LINE
  8
0
 10
25
 11
25
 20
-10
 21
-5
  0
LINE
  8
0
 10
25
 11
62
 20
-5
 21
-5
  0
LINE
  8
0
 10
62
 11
62
 20
-5
 21
-10
  0
LINE
  8
0
 10
62
 11
25
 20
-10
 21
-10
  0
LINE
  8
0
 10
90
 11
90.098
 20
-15
 21
-14.382
  0
LINE
  8
0
 10
90.098
 11
90.382
 20
-14.382
 21
-13.824
  0
LINE
  8
0
 10
90.382
 11
90.824
 20
-13.824
 21
-13.382
  0
LINE
  8
0
 10
90.824
 11
91.382
 20
-13.382
 21
-13.098
  0
LINE
  8
0
 10
91.382
 11
92
 20
-13.098
 21
-13
  0
LINE
  8
0
 10
92
 11
92.618
 20
-13
 21
-13.098
  0
LINE
  8
0
 10
92.618
 11
93.176
 20
-13.098
 21
-13.382
  0
LINE
  8
0
 10
93.176
 11
93.618
 20
-13.382
 21
-13.824
  0
LINE
  8
0
 10
93.618
 11
93.902
 20
-13.824
 21
-14.382
  0
LINE
  8
0
 10
93.902
 11
94
 20
-14.382
 21
-15
  0
LINE
  8
0
 10
94
 11
93.902
 20
-15
 21
-15.618
  0
LINE
  8
0
 10
93.902
 11
93.618
 20
-15.618
 21
-16.176
  0
LINE
  8
0
 10
93.618
 11
93.176
 20
-16.176
 21
-16.618
  0
LINE
  8
0
 10
93.176
 11
92.618
 20
-16.618
 21
-16.902
  0
LINE
  8
0
 10
92.618
 11
92
 20
-16.902
 21
-17
  0
LINE
  8
0
 10
92
 11
91.382
 20
-17
 21
-16.902
  0
LINE
  8
0
 10
91.382
 11
90.824
 20
-16.902
 21
-16.618
  0
LINE
  8
0
 10
90.824
 11
90.382
 20
-16.618
 21
-16.176
  0
LINE
  8
0
 10
90.382
 11
90.098
 20
-16.176
 21
-15.618
  0
LINE
  8
0
 10
90.098
 11
90
 20
-15.618
 21
-15
  0
LINE
  8
0
 10
90
 11
90.098
 20
147
 21
147.618
  0
LINE
  8
0
 10
90.098
 11
90.382
 20
147.618
 21
148.176
  0
LINE
  8
0
 10
90.382
 11
90.824
 20
148.176
 21
148.618
  0
LINE
  8
0
 10
90.824
 11
91.382
 20
148.618
 21
148.902
  0
LINE
  8
0
 10
91.382
 11
92
 20
148.902
 21
149
  0
LINE
  8
0
 10
92
 11
92.618
 20
149
 21
148.902
  0
LINE
  8
0
 10
92.618
 11
93.176
 20
148.902
 21
148.618
  0
LINE
  8
0
 10
93.176
 11
93.618
 20
148.618
 21
148.176
  0
LINE
  8
0
 10
93.618
 11
93.902
 20
148.176
 21
147.618
  0
LINE
  8
0
 10
93.902
 11
94
 20
147.618
 21
147
  0
LINE
  8
0
 10
94
 11
93.902
 20
147
 21
146.382
  0
LINE
  8
0
 10
93.902
 11
93.618
 20
146.382
 21
145.824
  0
LINE
  8
0
 10
93.618
 11
93.176
 20
145.824
 21
145.382
  0
LINE
  8
0
 10
93.176
 11
92.618
 20
145.382
 21
145.098
  0
LINE
  8
0
 10
92.618
 11
92
 20
145.098
 21
145
  0
LINE
  8
0
 10
92
 11
91.382
 20
145
 21
145.098
  0
LINE
  8
0
 10
91.382
 11
90.824
 20
145.098
 21
145.382
  0
LINE
  8
0
 10
90.824
 11
90.382
 20
145.382
 21
145.824
  0
LINE
  8
0
 10
90.382
 11
90.098
 20
145.824
 21
146.382
  0
LINE
  8
0
 10
90.098
 11
90
 20
146.382
 21
147
  0
ENDSEC
  0
SECTION
  2
OBJECTS
  0
DICTIONARY
  0
ENDSEC
  0
EOF
