solid OpenSCAD_Model
  facet normal 0 0 -1
    outer loop
      vertex -7 0 -10
      vertex -6.6574 2.16312 -10
      vertex -6.6574 -2.16312 -10
    endloop
  endfacet
  facet normal 0 0 -1
    outer loop
      vertex -6.6574 -2.16312 -10
      vertex -6.6574 2.16312 -10
      vertex -5.66312 4.1145 -10
    endloop
  endfacet
  facet normal 0 0 -1
    outer loop
      vertex -6.6574 -2.16312 -10
      vertex -5.66312 4.1145 -10
      vertex -4.1145 5.66312 -10
    endloop
  endfacet
  facet normal 0 0 -1
    outer loop
      vertex -6.6574 -2.16312 -10
      vertex -4.1145 5.66312 -10
      vertex -2.16312 6.6574 -10
    endloop
  endfacet
  facet normal 0 0 -1
    outer loop
      vertex -6.6574 -2.16312 -10
      vertex -2.16312 6.6574 -10
      vertex 0 7 -10
    endloop
  endfacet
  facet normal 0 0 -1
    outer loop
      vertex -6.6574 -2.16312 -10
      vertex 0 7 -10
      vertex 2.16312 6.6574 -10
    endloop
  endfacet
  facet normal 0 0 -1
    outer loop
      vertex -6.6574 -2.16312 -10
      vertex 2.16312 6.6574 -10
      vertex 4.1145 5.66312 -10
    endloop
  endfacet
  facet normal 0 0 -1
    outer loop
      vertex 0.618034 1.90211 -10
      vertex 4.1145 5.66312 -10
      vertex 5.66312 4.1145 -10
    endloop
  endfacet
  facet normal 0 0 -1
    outer loop
      vertex 1.61803 1.17557 -10
      vertex 5.66312 4.1145 -10
      vertex 6.6574 2.16312 -10
    endloop
  endfacet
  facet normal 0 0 -1
    outer loop
      vertex 2 0 -10
      vertex 6.6574 2.16312 -10
      vertex 7 0 -10
    endloop
  endfacet
  facet normal 0 0 -1
    outer loop
      vertex 1.17557 -1.61803 -10
      vertex 7 0 -10
      vertex 6.6574 -2.16312 -10
    endloop
  endfacet
  facet normal 0 0 -1
    outer loop
      vertex -6.6574 -2.16312 -10
      vertex 6.6574 -2.16312 -10
      vertex 5.66312 -4.1145 -10
    endloop
  endfacet
  facet normal 0 0 -1
    outer loop
      vertex -6.6574 -2.16312 -10
      vertex 5.66312 -4.1145 -10
      vertex 4.1145 -5.66312 -10
    endloop
  endfacet
  facet normal 0 0 -1
    outer loop
      vertex -6.6574 -2.16312 -10
      vertex 4.1145 -5.66312 -10
      vertex 2.16312 -6.6574 -10
    endloop
  endfacet
  facet normal 0 0 -1
    outer loop
      vertex -6.6574 -2.16312 -10
      vertex 2.16312 -6.6574 -10
      vertex 0 -7 -10
    endloop
  endfacet
  facet normal 0 0 -1
    outer loop
      vertex -6.6574 -2.16312 -10
      vertex 0 -7 -10
      vertex -2.16312 -6.6574 -10
    endloop
  endfacet
  facet normal 0 0 -1
    outer loop
      vertex -6.6574 -2.16312 -10
      vertex -2.16312 -6.6574 -10
      vertex -4.1145 -5.66312 -10
    endloop
  endfacet
  facet normal 0 0 -1
    outer loop
      vertex -6.6574 -2.16312 -10
      vertex -4.1145 -5.66312 -10
      vertex -5.66312 -4.1145 -10
    endloop
  endfacet
  facet normal 0 0 -1
    outer loop
      vertex -1.90211 -0.618034 -10
      vertex -6.6574 -2.16312 -10
      vertex -2 0 -10
    endloop
  endfacet
  facet normal 0 0 -1
    outer loop
      vertex -1.17557 -1.61803 -10
      vertex -6.6574 -2.16312 -10
      vertex -1.61803 -1.17557 -10
    endloop
  endfacet
  facet normal 0 0 -1
    outer loop
      vertex -6.6574 -2.16312 -10
      vertex -1.90211 -0.618034 -10
      vertex -1.61803 -1.17557 -10
    endloop
  endfacet
  facet normal 0 0 -1
    outer loop
      vertex 0.618034 -1.90211 -10
      vertex 6.6574 -2.16312 -10
      vertex 0 -2 -10
    endloop
  endfacet
  facet normal 0 0 -1
    outer loop
      vertex -6.6574 -2.16312 -10
      vertex -1.17557 -1.61803 -10
      vertex -0.618034 -1.90211 -10
    endloop
  endfacet
  facet normal 0 0 -1
    outer loop
      vertex -6.6574 -2.16312 -10
      vertex -0.618034 -1.90211 -10
      vertex 0 -2 -10
    endloop
  endfacet
  facet normal 0 0 -1
    outer loop
      vertex -6.6574 -2.16312 -10
      vertex 0 -2 -10
      vertex 6.6574 -2.16312 -10
    endloop
  endfacet
  facet normal 0 0 -1
    outer loop
      vertex 1.17557 -1.61803 -10
      vertex 6.6574 -2.16312 -10
      vertex 0.618034 -1.90211 -10
    endloop
  endfacet
  facet normal 0 0 -1
    outer loop
      vertex 1.61803 -1.17557 -10
      vertex 7 0 -10
      vertex 1.17557 -1.61803 -10
    endloop
  endfacet
  facet normal 0 0 -1
    outer loop
      vertex 1.90211 -0.618034 -10
      vertex 7 0 -10
      vertex 1.61803 -1.17557 -10
    endloop
  endfacet
  facet normal 0 0 -1
    outer loop
      vertex 2 0 -10
      vertex 7 0 -10
      vertex 1.90211 -0.618034 -10
    endloop
  endfacet
  facet normal 0 0 -1
    outer loop
      vertex 1.90211 0.618034 -10
      vertex 6.6574 2.16312 -10
      vertex 2 0 -10
    endloop
  endfacet
  facet normal 0 0 -1
    outer loop
      vertex 1.17557 1.61803 -10
      vertex 5.66312 4.1145 -10
      vertex 1.61803 1.17557 -10
    endloop
  endfacet
  facet normal 0 0 -1
    outer loop
      vertex 0.618034 1.90211 -10
      vertex 5.66312 4.1145 -10
      vertex 1.17557 1.61803 -10
    endloop
  endfacet
  facet normal 0 0 -1
    outer loop
      vertex 0 2 -10
      vertex 4.1145 5.66312 -10
      vertex 0.618034 1.90211 -10
    endloop
  endfacet
  facet normal 0 0 -1
    outer loop
      vertex 1.61803 1.17557 -10
      vertex 6.6574 2.16312 -10
      vertex 1.90211 0.618034 -10
    endloop
  endfacet
  facet normal 0 0 -1
    outer loop
      vertex -0.618034 1.90211 -10
      vertex 4.1145 5.66312 -10
      vertex 0 2 -10
    endloop
  endfacet
  facet normal 0 0 -1
    outer loop
      vertex -1.17557 1.61803 -10
      vertex 4.1145 5.66312 -10
      vertex -0.618034 1.90211 -10
    endloop
  endfacet
  facet normal 0 0 -1
    outer loop
      vertex -6.6574 -2.16312 -10
      vertex 4.1145 5.66312 -10
      vertex -1.17557 1.61803 -10
    endloop
  endfacet
  facet normal 0 0 -1
    outer loop
      vertex -1.90211 0.618034 -10
      vertex -6.6574 -2.16312 -10
      vertex -1.61803 1.17557 -10
    endloop
  endfacet
  facet normal 0 0 -1
    outer loop
      vertex -2 0 -10
      vertex -6.6574 -2.16312 -10
      vertex -1.90211 0.618034 -10
    endloop
  endfacet
  facet normal 0 0 -1
    outer loop
      vertex -1.61803 1.17557 -10
      vertex -6.6574 -2.16312 -10
      vertex -1.17557 1.61803 -10
    endloop
  endfacet
  facet normal -0.987688 0.156434 0
    outer loop
      vertex -7 0 -10
      vertex -7 0 10
      vertex -6.6574 2.16312 -10
    endloop
  endfacet
  facet normal -0.987688 0.156434 0
    outer loop
      vertex -6.6574 2.16312 -10
      vertex -7 0 10
      vertex -6.6574 2.16312 10
    endloop
  endfacet
  facet normal -0.987688 -0.156434 0
    outer loop
      vertex -7 0 -10
      vertex -6.6574 -2.16312 -10
      vertex -7 0 10
    endloop
  endfacet
  facet normal -0.987688 -0.156434 0
    outer loop
      vertex -7 0 10
      vertex -6.6574 -2.16312 -10
      vertex -6.6574 -2.16312 10
    endloop
  endfacet
  facet normal -0.891006 -0.453991 0
    outer loop
      vertex -6.6574 -2.16312 -10
      vertex -5.66312 -4.1145 -10
      vertex -6.6574 -2.16312 10
    endloop
  endfacet
  facet normal -0.891006 -0.453991 0
    outer loop
      vertex -6.6574 -2.16312 10
      vertex -5.66312 -4.1145 -10
      vertex -5.66312 -4.1145 10
    endloop
  endfacet
  facet normal -0.707107 -0.707107 0
    outer loop
      vertex -5.66312 -4.1145 10
      vertex -5.66312 -4.1145 -10
      vertex -4.1145 -5.66312 -10
    endloop
  endfacet
  facet normal -0.707107 -0.707107 0
    outer loop
      vertex -4.1145 -5.66312 10
      vertex -5.66312 -4.1145 10
      vertex -4.1145 -5.66312 -10
    endloop
  endfacet
  facet normal -0.453991 -0.891006 0
    outer loop
      vertex -4.1145 -5.66312 10
      vertex -4.1145 -5.66312 -10
      vertex -2.16312 -6.6574 -10
    endloop
  endfacet
  facet normal -0.453991 -0.891006 0
    outer loop
      vertex -2.16312 -6.6574 10
      vertex -4.1145 -5.66312 10
      vertex -2.16312 -6.6574 -10
    endloop
  endfacet
  facet normal -0.156434 -0.987688 0
    outer loop
      vertex -2.16312 -6.6574 10
      vertex -2.16312 -6.6574 -10
      vertex 0 -7 -10
    endloop
  endfacet
  facet normal -0.156434 -0.987688 0
    outer loop
      vertex 0 -7 10
      vertex -2.16312 -6.6574 10
      vertex 0 -7 -10
    endloop
  endfacet
  facet normal 0.156434 -0.987688 0
    outer loop
      vertex 0 -7 10
      vertex 0 -7 -10
      vertex 2.16312 -6.6574 -10
    endloop
  endfacet
  facet normal 0.156434 -0.987688 0
    outer loop
      vertex 2.16312 -6.6574 10
      vertex 0 -7 10
      vertex 2.16312 -6.6574 -10
    endloop
  endfacet
  facet normal 0.453991 -0.891006 0
    outer loop
      vertex 2.16312 -6.6574 10
      vertex 2.16312 -6.6574 -10
      vertex 4.1145 -5.66312 -10
    endloop
  endfacet
  facet normal 0.453991 -0.891006 0
    outer loop
      vertex 4.1145 -5.66312 10
      vertex 2.16312 -6.6574 10
      vertex 4.1145 -5.66312 -10
    endloop
  endfacet
  facet normal 0.707107 -0.707107 0
    outer loop
      vertex 4.1145 -5.66312 10
      vertex 4.1145 -5.66312 -10
      vertex 5.66312 -4.1145 -10
    endloop
  endfacet
  facet normal 0.707107 -0.707107 0
    outer loop
      vertex 5.66312 -4.1145 10
      vertex 4.1145 -5.66312 10
      vertex 5.66312 -4.1145 -10
    endloop
  endfacet
  facet normal 0.891006 -0.453991 0
    outer loop
      vertex 5.66312 -4.1145 10
      vertex 5.66312 -4.1145 -10
      vertex 6.6574 -2.16312 -10
    endloop
  endfacet
  facet normal 0.891006 -0.453991 0
    outer loop
      vertex 6.6574 -2.16312 10
      vertex 5.66312 -4.1145 10
      vertex 6.6574 -2.16312 -10
    endloop
  endfacet
  facet normal 0.987688 -0.156434 0
    outer loop
      vertex 6.6574 -2.16312 10
      vertex 6.6574 -2.16312 -10
      vertex 7 0 -10
    endloop
  endfacet
  facet normal 0.987688 -0.156434 0
    outer loop
      vertex 7 0 10
      vertex 6.6574 -2.16312 10
      vertex 7 0 -10
    endloop
  endfacet
  facet normal 0.987688 0.156434 0
    outer loop
      vertex 7 0 -10
      vertex 6.6574 2.16312 -10
      vertex 6.6574 2.16312 10
    endloop
  endfacet
  facet normal 0.987688 0.156434 0
    outer loop
      vertex 7 0 10
      vertex 7 0 -10
      vertex 6.6574 2.16312 10
    endloop
  endfacet
  facet normal 0.891006 0.453991 0
    outer loop
      vertex 6.6574 2.16312 -10
      vertex 5.66312 4.1145 -10
      vertex 5.66312 4.1145 10
    endloop
  endfacet
  facet normal 0.891006 0.453991 0
    outer loop
      vertex 6.6574 2.16312 10
      vertex 6.6574 2.16312 -10
      vertex 5.66312 4.1145 10
    endloop
  endfacet
  facet normal 0.707107 0.707107 0
    outer loop
      vertex 4.1145 5.66312 -10
      vertex 4.1145 5.66312 10
      vertex 5.66312 4.1145 -10
    endloop
  endfacet
  facet normal 0.707107 0.707107 0
    outer loop
      vertex 5.66312 4.1145 -10
      vertex 4.1145 5.66312 10
      vertex 5.66312 4.1145 10
    endloop
  endfacet
  facet normal 0.453991 0.891006 0
    outer loop
      vertex 2.16312 6.6574 -10
      vertex 2.16312 6.6574 10
      vertex 4.1145 5.66312 -10
    endloop
  endfacet
  facet normal 0.453991 0.891006 0
    outer loop
      vertex 4.1145 5.66312 -10
      vertex 2.16312 6.6574 10
      vertex 4.1145 5.66312 10
    endloop
  endfacet
  facet normal 0.156434 0.987688 0
    outer loop
      vertex 0 7 -10
      vertex 0 7 10
      vertex 2.16312 6.6574 -10
    endloop
  endfacet
  facet normal 0.156434 0.987688 0
    outer loop
      vertex 2.16312 6.6574 -10
      vertex 0 7 10
      vertex 2.16312 6.6574 10
    endloop
  endfacet
  facet normal -0.156434 0.987688 0
    outer loop
      vertex -2.16312 6.6574 -10
      vertex -2.16312 6.6574 10
      vertex 0 7 -10
    endloop
  endfacet
  facet normal -0.156434 0.987688 0
    outer loop
      vertex 0 7 -10
      vertex -2.16312 6.6574 10
      vertex 0 7 10
    endloop
  endfacet
  facet normal -0.453991 0.891006 0
    outer loop
      vertex -4.1145 5.66312 -10
      vertex -4.1145 5.66312 10
      vertex -2.16312 6.6574 -10
    endloop
  endfacet
  facet normal -0.453991 0.891006 0
    outer loop
      vertex -2.16312 6.6574 -10
      vertex -4.1145 5.66312 10
      vertex -2.16312 6.6574 10
    endloop
  endfacet
  facet normal -0.707107 0.707107 0
    outer loop
      vertex -5.66312 4.1145 -10
      vertex -5.66312 4.1145 10
      vertex -4.1145 5.66312 -10
    endloop
  endfacet
  facet normal -0.707107 0.707107 0
    outer loop
      vertex -4.1145 5.66312 -10
      vertex -5.66312 4.1145 10
      vertex -4.1145 5.66312 10
    endloop
  endfacet
  facet normal -0.891006 0.453991 0
    outer loop
      vertex -6.6574 2.16312 -10
      vertex -6.6574 2.16312 10
      vertex -5.66312 4.1145 -10
    endloop
  endfacet
  facet normal -0.891006 0.453991 0
    outer loop
      vertex -5.66312 4.1145 -10
      vertex -6.6574 2.16312 10
      vertex -5.66312 4.1145 10
    endloop
  endfacet
  facet normal 0.987688 0.156435 0
    outer loop
      vertex -2 0 10
      vertex -1.90211 -0.618034 10
      vertex -1.90211 -0.618034 -10
    endloop
  endfacet
  facet normal 0.987688 0.156435 0
    outer loop
      vertex -2 0 -10
      vertex -2 0 10
      vertex -1.90211 -0.618034 -10
    endloop
  endfacet
  facet normal 0.987688 -0.156435 0
    outer loop
      vertex -1.90211 0.618034 -10
      vertex -1.90211 0.618034 10
      vertex -2 0 10
    endloop
  endfacet
  facet normal 0.987688 -0.156435 0
    outer loop
      vertex -2 0 -10
      vertex -1.90211 0.618034 -10
      vertex -2 0 10
    endloop
  endfacet
  facet normal 0.891007 -0.45399 0
    outer loop
      vertex -1.61803 1.17557 -10
      vertex -1.61803 1.17557 10
      vertex -1.90211 0.618034 10
    endloop
  endfacet
  facet normal 0.891007 -0.45399 0
    outer loop
      vertex -1.90211 0.618034 -10
      vertex -1.61803 1.17557 -10
      vertex -1.90211 0.618034 10
    endloop
  endfacet
  facet normal 0.707107 -0.707107 0
    outer loop
      vertex -1.17557 1.61803 -10
      vertex -1.17557 1.61803 10
      vertex -1.61803 1.17557 10
    endloop
  endfacet
  facet normal 0.707107 -0.707107 0
    outer loop
      vertex -1.61803 1.17557 -10
      vertex -1.17557 1.61803 -10
      vertex -1.61803 1.17557 10
    endloop
  endfacet
  facet normal 0.45399 -0.891007 0
    outer loop
      vertex -0.618034 1.90211 -10
      vertex -0.618034 1.90211 10
      vertex -1.17557 1.61803 10
    endloop
  endfacet
  facet normal 0.45399 -0.891007 0
    outer loop
      vertex -1.17557 1.61803 -10
      vertex -0.618034 1.90211 -10
      vertex -1.17557 1.61803 10
    endloop
  endfacet
  facet normal 0.156435 -0.987688 0
    outer loop
      vertex 0 2 -10
      vertex 0 2 10
      vertex -0.618034 1.90211 10
    endloop
  endfacet
  facet normal 0.156435 -0.987688 0
    outer loop
      vertex -0.618034 1.90211 -10
      vertex 0 2 -10
      vertex -0.618034 1.90211 10
    endloop
  endfacet
  facet normal -0.156435 -0.987688 0
    outer loop
      vertex 0.618034 1.90211 -10
      vertex 0.618034 1.90211 10
      vertex 0 2 10
    endloop
  endfacet
  facet normal -0.156435 -0.987688 0
    outer loop
      vertex 0 2 -10
      vertex 0.618034 1.90211 -10
      vertex 0 2 10
    endloop
  endfacet
  facet normal -0.45399 -0.891007 0
    outer loop
      vertex 1.17557 1.61803 -10
      vertex 1.17557 1.61803 10
      vertex 0.618034 1.90211 10
    endloop
  endfacet
  facet normal -0.45399 -0.891007 0
    outer loop
      vertex 0.618034 1.90211 -10
      vertex 1.17557 1.61803 -10
      vertex 0.618034 1.90211 10
    endloop
  endfacet
  facet normal -0.707107 -0.707107 0
    outer loop
      vertex 1.61803 1.17557 -10
      vertex 1.61803 1.17557 10
      vertex 1.17557 1.61803 10
    endloop
  endfacet
  facet normal -0.707107 -0.707107 0
    outer loop
      vertex 1.17557 1.61803 -10
      vertex 1.61803 1.17557 -10
      vertex 1.17557 1.61803 10
    endloop
  endfacet
  facet normal -0.891007 -0.45399 0
    outer loop
      vertex 1.90211 0.618034 10
      vertex 1.61803 1.17557 10
      vertex 1.90211 0.618034 -10
    endloop
  endfacet
  facet normal -0.891007 -0.45399 0
    outer loop
      vertex 1.90211 0.618034 -10
      vertex 1.61803 1.17557 10
      vertex 1.61803 1.17557 -10
    endloop
  endfacet
  facet normal -0.987688 -0.156435 0
    outer loop
      vertex 2 0 10
      vertex 1.90211 0.618034 10
      vertex 2 0 -10
    endloop
  endfacet
  facet normal -0.987688 -0.156435 0
    outer loop
      vertex 2 0 -10
      vertex 1.90211 0.618034 10
      vertex 1.90211 0.618034 -10
    endloop
  endfacet
  facet normal -0.987688 0.156435 0
    outer loop
      vertex 2 0 10
      vertex 2 0 -10
      vertex 1.90211 -0.618034 10
    endloop
  endfacet
  facet normal -0.987688 0.156435 0
    outer loop
      vertex 1.90211 -0.618034 10
      vertex 2 0 -10
      vertex 1.90211 -0.618034 -10
    endloop
  endfacet
  facet normal -0.891007 0.45399 0
    outer loop
      vertex 1.90211 -0.618034 10
      vertex 1.90211 -0.618034 -10
      vertex 1.61803 -1.17557 10
    endloop
  endfacet
  facet normal -0.891007 0.45399 0
    outer loop
      vertex 1.61803 -1.17557 10
      vertex 1.90211 -0.618034 -10
      vertex 1.61803 -1.17557 -10
    endloop
  endfacet
  facet normal -0.707107 0.707107 0
    outer loop
      vertex 1.61803 -1.17557 10
      vertex 1.61803 -1.17557 -10
      vertex 1.17557 -1.61803 10
    endloop
  endfacet
  facet normal -0.707107 0.707107 0
    outer loop
      vertex 1.17557 -1.61803 10
      vertex 1.61803 -1.17557 -10
      vertex 1.17557 -1.61803 -10
    endloop
  endfacet
  facet normal -0.45399 0.891007 0
    outer loop
      vertex 1.17557 -1.61803 10
      vertex 1.17557 -1.61803 -10
      vertex 0.618034 -1.90211 10
    endloop
  endfacet
  facet normal -0.45399 0.891007 0
    outer loop
      vertex 0.618034 -1.90211 10
      vertex 1.17557 -1.61803 -10
      vertex 0.618034 -1.90211 -10
    endloop
  endfacet
  facet normal -0.156435 0.987688 0
    outer loop
      vertex 0.618034 -1.90211 10
      vertex 0.618034 -1.90211 -10
      vertex 0 -2 10
    endloop
  endfacet
  facet normal -0.156435 0.987688 0
    outer loop
      vertex 0 -2 10
      vertex 0.618034 -1.90211 -10
      vertex 0 -2 -10
    endloop
  endfacet
  facet normal 0.156435 0.987688 0
    outer loop
      vertex 0 -2 10
      vertex 0 -2 -10
      vertex -0.618034 -1.90211 10
    endloop
  endfacet
  facet normal 0.156435 0.987688 0
    outer loop
      vertex -0.618034 -1.90211 10
      vertex 0 -2 -10
      vertex -0.618034 -1.90211 -10
    endloop
  endfacet
  facet normal 0.45399 0.891007 0
    outer loop
      vertex -0.618034 -1.90211 10
      vertex -0.618034 -1.90211 -10
      vertex -1.17557 -1.61803 10
    endloop
  endfacet
  facet normal 0.45399 0.891007 0
    outer loop
      vertex -1.17557 -1.61803 10
      vertex -0.618034 -1.90211 -10
      vertex -1.17557 -1.61803 -10
    endloop
  endfacet
  facet normal 0.707107 0.707107 0
    outer loop
      vertex -1.17557 -1.61803 10
      vertex -1.17557 -1.61803 -10
      vertex -1.61803 -1.17557 10
    endloop
  endfacet
  facet normal 0.707107 0.707107 0
    outer loop
      vertex -1.61803 -1.17557 10
      vertex -1.17557 -1.61803 -10
      vertex -1.61803 -1.17557 -10
    endloop
  endfacet
  facet normal 0.891007 0.45399 0
    outer loop
      vertex -1.90211 -0.618034 10
      vertex -1.61803 -1.17557 10
      vertex -1.61803 -1.17557 -10
    endloop
  endfacet
  facet normal 0.891007 0.45399 0
    outer loop
      vertex -1.90211 -0.618034 -10
      vertex -1.90211 -0.618034 10
      vertex -1.61803 -1.17557 -10
    endloop
  endfacet
  facet normal 0 0 1
    outer loop
      vertex -6.6574 2.16312 10
      vertex -7 0 10
      vertex -6.6574 -2.16312 10
    endloop
  endfacet
  facet normal 0 0 1
    outer loop
      vertex -4.1145 -5.66312 10
      vertex -6.6574 2.16312 10
      vertex -5.66312 -4.1145 10
    endloop
  endfacet
  facet normal 0 0 1
    outer loop
      vertex -5.66312 -4.1145 10
      vertex -6.6574 2.16312 10
      vertex -6.6574 -2.16312 10
    endloop
  endfacet
  facet normal 0 0 1
    outer loop
      vertex -2.16312 -6.6574 10
      vertex -6.6574 2.16312 10
      vertex -4.1145 -5.66312 10
    endloop
  endfacet
  facet normal 0 0 1
    outer loop
      vertex 0 -7 10
      vertex -6.6574 2.16312 10
      vertex -2.16312 -6.6574 10
    endloop
  endfacet
  facet normal 0 0 1
    outer loop
      vertex 2.16312 -6.6574 10
      vertex -6.6574 2.16312 10
      vertex 0 -7 10
    endloop
  endfacet
  facet normal 0 0 1
    outer loop
      vertex 4.1145 -5.66312 10
      vertex -6.6574 2.16312 10
      vertex 2.16312 -6.6574 10
    endloop
  endfacet
  facet normal 0 0 1
    outer loop
      vertex -1.17557 -1.61803 10
      vertex -6.6574 2.16312 10
      vertex 4.1145 -5.66312 10
    endloop
  endfacet
  facet normal 0 0 1
    outer loop
      vertex 1.90211 0.618034 10
      vertex 2 0 10
      vertex 7 0 10
    endloop
  endfacet
  facet normal 0 0 1
    outer loop
      vertex 5.66312 4.1145 10
      vertex -6.6574 2.16312 10
      vertex 6.6574 2.16312 10
    endloop
  endfacet
  facet normal 0 0 1
    outer loop
      vertex 4.1145 5.66312 10
      vertex -6.6574 2.16312 10
      vertex 5.66312 4.1145 10
    endloop
  endfacet
  facet normal 0 0 1
    outer loop
      vertex 2.16312 6.6574 10
      vertex -6.6574 2.16312 10
      vertex 4.1145 5.66312 10
    endloop
  endfacet
  facet normal 0 0 1
    outer loop
      vertex 0 7 10
      vertex -6.6574 2.16312 10
      vertex 2.16312 6.6574 10
    endloop
  endfacet
  facet normal 0 0 1
    outer loop
      vertex -2.16312 6.6574 10
      vertex -6.6574 2.16312 10
      vertex 0 7 10
    endloop
  endfacet
  facet normal 0 0 1
    outer loop
      vertex -4.1145 5.66312 10
      vertex -6.6574 2.16312 10
      vertex -2.16312 6.6574 10
    endloop
  endfacet
  facet normal 0 0 1
    outer loop
      vertex -5.66312 4.1145 10
      vertex -6.6574 2.16312 10
      vertex -4.1145 5.66312 10
    endloop
  endfacet
  facet normal 0 0 1
    outer loop
      vertex -1.17557 -1.61803 10
      vertex -1.61803 -1.17557 10
      vertex -6.6574 2.16312 10
    endloop
  endfacet
  facet normal 0 0 1
    outer loop
      vertex 1.61803 1.17557 10
      vertex 1.90211 0.618034 10
      vertex 7 0 10
    endloop
  endfacet
  facet normal 0 0 1
    outer loop
      vertex 1.90211 -0.618034 10
      vertex 1.61803 -1.17557 10
      vertex 6.6574 -2.16312 10
    endloop
  endfacet
  facet normal 0 0 1
    outer loop
      vertex -1.61803 1.17557 10
      vertex -6.6574 2.16312 10
      vertex -1.90211 0.618034 10
    endloop
  endfacet
  facet normal 0 0 1
    outer loop
      vertex 0 2 10
      vertex 0.618034 1.90211 10
      vertex 6.6574 2.16312 10
    endloop
  endfacet
  facet normal 0 0 1
    outer loop
      vertex 1.17557 -1.61803 10
      vertex 0.618034 -1.90211 10
      vertex 5.66312 -4.1145 10
    endloop
  endfacet
  facet normal 0 0 1
    outer loop
      vertex -0.618034 1.90211 10
      vertex -6.6574 2.16312 10
      vertex -1.17557 1.61803 10
    endloop
  endfacet
  facet normal 0 0 1
    outer loop
      vertex 0 2 10
      vertex -6.6574 2.16312 10
      vertex -0.618034 1.90211 10
    endloop
  endfacet
  facet normal 0 0 1
    outer loop
      vertex 0.618034 1.90211 10
      vertex 1.17557 1.61803 10
      vertex 6.6574 2.16312 10
    endloop
  endfacet
  facet normal 0 0 1
    outer loop
      vertex 6.6574 2.16312 10
      vertex -6.6574 2.16312 10
      vertex 0 2 10
    endloop
  endfacet
  facet normal 0 0 1
    outer loop
      vertex 6.6574 2.16312 10
      vertex 1.17557 1.61803 10
      vertex 7 0 10
    endloop
  endfacet
  facet normal 0 0 1
    outer loop
      vertex 1.17557 1.61803 10
      vertex 1.61803 1.17557 10
      vertex 7 0 10
    endloop
  endfacet
  facet normal 0 0 1
    outer loop
      vertex 2 0 10
      vertex 1.90211 -0.618034 10
      vertex 6.6574 -2.16312 10
    endloop
  endfacet
  facet normal 0 0 1
    outer loop
      vertex 7 0 10
      vertex 2 0 10
      vertex 6.6574 -2.16312 10
    endloop
  endfacet
  facet normal 0 0 1
    outer loop
      vertex -1.61803 1.17557 10
      vertex -1.17557 1.61803 10
      vertex -6.6574 2.16312 10
    endloop
  endfacet
  facet normal 0 0 1
    outer loop
      vertex 6.6574 -2.16312 10
      vertex 1.61803 -1.17557 10
      vertex 5.66312 -4.1145 10
    endloop
  endfacet
  facet normal 0 0 1
    outer loop
      vertex 1.61803 -1.17557 10
      vertex 1.17557 -1.61803 10
      vertex 5.66312 -4.1145 10
    endloop
  endfacet
  facet normal 0 0 1
    outer loop
      vertex 5.66312 -4.1145 10
      vertex 0.618034 -1.90211 10
      vertex 4.1145 -5.66312 10
    endloop
  endfacet
  facet normal 0 0 1
    outer loop
      vertex 0.618034 -1.90211 10
      vertex 0 -2 10
      vertex 4.1145 -5.66312 10
    endloop
  endfacet
  facet normal 0 0 1
    outer loop
      vertex -0.618034 -1.90211 10
      vertex -1.17557 -1.61803 10
      vertex 4.1145 -5.66312 10
    endloop
  endfacet
  facet normal 0 0 1
    outer loop
      vertex -1.90211 -0.618034 10
      vertex -6.6574 2.16312 10
      vertex -1.61803 -1.17557 10
    endloop
  endfacet
  facet normal 0 0 1
    outer loop
      vertex 0 -2 10
      vertex -0.618034 -1.90211 10
      vertex 4.1145 -5.66312 10
    endloop
  endfacet
  facet normal 0 0 1
    outer loop
      vertex -1.90211 -0.618034 10
      vertex -2 0 10
      vertex -6.6574 2.16312 10
    endloop
  endfacet
  facet normal 0 0 1
    outer loop
      vertex -2 0 10
      vertex -1.90211 0.618034 10
      vertex -6.6574 2.16312 10
    endloop
  endfacet
endsolid OpenSCAD_Model
